<?xml version="1.0" encoding="utf-8"?>
<!-- Generator: Adobe Illustrator 23.0.3, SVG Export Plug-In . SVG Version: 6.00 Build 0)  -->
<svg version="1.1" id="Calque_1" xmlns="http://www.w3.org/2000/svg" xmlns:xlink="http://www.w3.org/1999/xlink" x="0px" y="0px"
	 viewBox="0 0 250 100" style="enable-background:new 0 0 250 100;" xml:space="preserve">
<style type="text/css">
	.st0{fill:url(#SVGID_1_);}
	.st1{fill:url(#SVGID_2_);}
	.st2{fill:url(#SVGID_3_);}
	.st3{opacity:0.5;fill:url(#SVGID_4_);stroke:#0000FF;stroke-miterlimit:10;enable-background:new    ;}
	.st4{fill:url(#SVGID_5_);}
	.st5{fill:url(#SVGID_6_);}
	.st6{fill:url(#SVGID_7_);}
	.st7{fill:url(#SVGID_8_);}
	.st8{fill:url(#SVGID_9_);}
	.st9{fill:url(#SVGID_10_);}
	.st10{fill:url(#SVGID_11_);}
	.st11{opacity:0.5;fill:url(#SVGID_12_);stroke:#0000FF;stroke-miterlimit:10;enable-background:new    ;}
	.st12{fill:url(#SVGID_13_);}
	.st13{fill:url(#SVGID_14_);}
	.st14{fill:url(#SVGID_15_);}
	.st15{fill:url(#SVGID_16_);}
	.st16{fill:url(#SVGID_17_);}
	.st17{fill:url(#SVGID_18_);}
	.st18{fill:url(#SVGID_19_);}
	.st19{fill:url(#SVGID_20_);}
	.st20{fill:url(#SVGID_21_);}
	.st21{fill:url(#SVGID_22_);}
	.st22{opacity:0.5;fill:url(#SVGID_23_);stroke:#0000FF;stroke-miterlimit:10;enable-background:new    ;}
	.st23{fill:url(#SVGID_24_);}
	.st24{fill:url(#SVGID_25_);}
</style>
<g>
	
		<linearGradient id="SVGID_1_" gradientUnits="userSpaceOnUse" x1="78.285" y1="31.5" x2="78.285" y2="79.49" gradientTransform="matrix(1 0 0 -1 0 100)">
		<stop  offset="0" style="stop-color:#00FF00"/>
		<stop  offset="1" style="stop-color:#0000FF"/>
	</linearGradient>
	<path class="st0" d="M86,68.5L83.3,59H70.4l-2.9,9.5h-12l14.8-48h15.6l15.1,48H86z M72.9,48.6h7.8l-3.9-13.9L72.9,48.6z"/>
	
		<linearGradient id="SVGID_2_" gradientUnits="userSpaceOnUse" x1="126.795" y1="31.5" x2="126.795" y2="79.48" gradientTransform="matrix(1 0 0 -1 0 100)">
		<stop  offset="0" style="stop-color:#00FF00"/>
		<stop  offset="1" style="stop-color:#0000FF"/>
	</linearGradient>
	<path class="st1" d="M148.1,68.5h-16.3l-7-18.3h-4.6v18.3h-14.7v-48h25.1c5.5,0,9.8,1.3,12.9,3.9c3.1,2.6,4.6,6,4.6,10.3
		c0,2.8-0.6,5.2-1.7,7.3c-1.1,2.1-3.4,4-6.8,5.6L148.1,68.5z M120.2,39.9h6.3c1.8,0,3.3-0.4,4.5-1.2s1.7-1.9,1.7-3.4
		c0-3.1-1.9-4.6-5.7-4.6h-6.8L120.2,39.9L120.2,39.9z"/>
	
		<linearGradient id="SVGID_3_" gradientUnits="userSpaceOnUse" x1="123.4725" y1="15.77" x2="123.4725" y2="80.5" gradientTransform="matrix(1 0 0 -1 0 100)">
		<stop  offset="0" style="stop-color:#00FF00"/>
		<stop  offset="1" style="stop-color:#0000FF"/>
	</linearGradient>
	<path class="st2" d="M53.3,84.2c0-4.6,0-9.2,0-13.8c57.7,0.1,101.9,0.1,107.7,0.1c0.7,0,3.3,0,6.5-0.7c0.7-0.1,2.4-0.5,4.6-1.4
		c1.4-0.6,2.2-0.9,3.2-1.6c0.5-0.4,1.9-1.5,2.8-3.5c0.9-2.2,0.7-4.2,0.6-5.1c-0.1-0.9-0.4-2.9-1.8-4.6c-1.4-1.6-3.2-2.1-4.3-2.5
		c-12.3-3.5-14.4-4.4-16.2-6.3c-2.4-2.6-3.6-5.7-3.6-9.2c0-2.2,0.4-4.2,1.2-6.1c1.2-2.8,3-4.4,3.9-5.2c5.8-5.2,13.9-4.8,15.6-4.8
		c2.7,0.1,8.5,0.4,13.5,4.7c3,2.6,4.4,5.6,5.1,7.3l-12.2,3.7c-1.3-3.2-3.8-4.8-7.7-4.8c-3.2,0-4.8,1-4.8,3c0,0.9,0.4,1.6,1.1,2.1
		c1.9,1.3,4.2,1.4,4.2,1.4c3.7,0.1,9.3,2.7,12.1,4.5c1.5,0.9,5.1,3.3,7.3,7.7c0.2,0.4,0.9,1.8,1.3,3.8c0.8,3.4,0.4,6.2,0,9.2
		c-0.4,3-0.8,5.2-2,8.1c-0.7,1.6-2.3,5.1-5.9,8.1c-3,2.5-6,3.4-8.6,4.2c-4.8,1.4-8.8,1.5-9.9,1.5C160.3,84,115.3,84.2,53.3,84.2z"/>
</g>
<g>
	
		<linearGradient id="SVGID_4_" gradientUnits="userSpaceOnUse" x1="60.8525" y1="18.6925" x2="55.2975" y2="24.2475" gradientTransform="matrix(1 0 0 -1 0 100)">
		<stop  offset="0" style="stop-color:#39B54A"/>
		<stop  offset="1" style="stop-color:#0000FF;stop-opacity:0.6"/>
	</linearGradient>
	<path class="st3" d="M54.8,80.7l2.8-7.2h1l2.9,7.2h-1.1l-0.8-2.2h-3l-0.8,2.2H54.8z M56.8,77.8h2.4l-0.8-2
		c-0.2-0.6-0.4-1.1-0.5-1.5c-0.1,0.5-0.2,0.9-0.4,1.4L56.8,77.8z"/>
	
		<linearGradient id="SVGID_5_" gradientUnits="userSpaceOnUse" x1="62.0977" y1="22.89" x2="62.9766" y2="22.89" gradientTransform="matrix(1 0 0 -1 0 100)">
		<stop  offset="0" style="stop-color:#00FF00;stop-opacity:0.7"/>
		<stop  offset="0" style="stop-color:#0000FF;stop-opacity:0.6"/>
	</linearGradient>
	<path class="st4" d="M62.1,80.7v-7.2H63v7.2H62.1z"/>
	
		<linearGradient id="SVGID_6_" gradientUnits="userSpaceOnUse" x1="64.32" y1="22.89" x2="65.1989" y2="22.89" gradientTransform="matrix(1 0 0 -1 0 100)">
		<stop  offset="0" style="stop-color:#00FF00;stop-opacity:0.7"/>
		<stop  offset="0" style="stop-color:#0000FF;stop-opacity:0.6"/>
	</linearGradient>
	<path class="st5" d="M64.3,80.7v-7.2h0.9v7.2H64.3z"/>
	
		<linearGradient id="SVGID_7_" gradientUnits="userSpaceOnUse" x1="66.27" y1="21.895" x2="71.05" y2="21.895" gradientTransform="matrix(1 0 0 -1 0 100)">
		<stop  offset="0" style="stop-color:#00FF00;stop-opacity:0.7"/>
		<stop  offset="0" style="stop-color:#0000FF;stop-opacity:0.6"/>
	</linearGradient>
	<path class="st6" d="M70.1,79l0.9,0.1c-0.1,0.5-0.4,0.9-0.8,1.2s-0.9,0.4-1.5,0.4c-0.8,0-1.4-0.2-1.8-0.7c-0.4-0.5-0.7-1.1-0.7-2
		c0-0.9,0.2-1.6,0.7-2s1-0.7,1.8-0.7c0.7,0,1.3,0.2,1.7,0.7s0.7,1.1,0.7,2c0,0.1,0,0.1,0,0.2h-3.9c0,0.6,0.2,1,0.5,1.3
		s0.7,0.4,1.1,0.4c0.3,0,0.6-0.1,0.8-0.3S70,79.4,70.1,79z M67.2,77.6h2.9c0-0.4-0.2-0.8-0.3-1c-0.3-0.3-0.6-0.5-1.1-0.5
		c-0.4,0-0.7,0.1-1,0.4S67.3,77.2,67.2,77.6z"/>
	
		<linearGradient id="SVGID_8_" gradientUnits="userSpaceOnUse" x1="72.11" y1="21.965" x2="74.9274" y2="21.965" gradientTransform="matrix(1 0 0 -1 0 100)">
		<stop  offset="0" style="stop-color:#00FF00;stop-opacity:0.7"/>
		<stop  offset="0" style="stop-color:#0000FF;stop-opacity:0.6"/>
	</linearGradient>
	<path class="st7" d="M72.1,80.7v-5.2h0.8v0.8c0.2-0.4,0.4-0.6,0.6-0.7s0.4-0.2,0.6-0.2c0.3,0,0.6,0.1,0.9,0.3l-0.3,0.8
		c-0.2-0.1-0.4-0.2-0.6-0.2c-0.2,0-0.4,0.1-0.5,0.2c-0.2,0.1-0.3,0.3-0.3,0.5C73,77.2,73,77.6,73,78v2.7L72.1,80.7L72.1,80.7z"/>
	
		<linearGradient id="SVGID_9_" gradientUnits="userSpaceOnUse" x1="77.93" y1="22.85" x2="82.7054" y2="22.85" gradientTransform="matrix(1 0 0 -1 0 100)">
		<stop  offset="0" style="stop-color:#00FF00;stop-opacity:0.7"/>
		<stop  offset="0" style="stop-color:#0000FF;stop-opacity:0.6"/>
	</linearGradient>
	<path class="st8" d="M81.6,80.1c-0.3,0.3-0.6,0.5-0.9,0.6s-0.6,0.2-1,0.2c-0.6,0-1-0.1-1.3-0.4c-0.3-0.3-0.5-0.6-0.5-1.1
		c0-0.3,0.1-0.5,0.2-0.7c0.1-0.2,0.3-0.4,0.4-0.5s0.4-0.2,0.6-0.3c0.2-0.1,0.4-0.1,0.8-0.1c0.7-0.1,1.2-0.2,1.6-0.3
		c0-0.1,0-0.2,0-0.2c0-0.4-0.1-0.6-0.3-0.8c-0.2-0.2-0.6-0.3-1-0.3c-0.4,0-0.7,0.1-0.9,0.2c-0.2,0.1-0.3,0.4-0.4,0.8L78.1,77
		c0.1-0.4,0.2-0.7,0.4-0.9c0.2-0.2,0.4-0.4,0.8-0.5c0.3-0.1,0.7-0.2,1.2-0.2c0.4,0,0.8,0.1,1.1,0.2s0.5,0.2,0.6,0.4
		c0.1,0.2,0.2,0.4,0.3,0.6c0,0.2,0,0.4,0,0.8v1.2c0,0.8,0,1.3,0.1,1.6s0.1,0.4,0.2,0.6h-0.9C81.7,80.5,81.6,80.3,81.6,80.1z
		 M81.5,78.1c-0.3,0.1-0.8,0.2-1.4,0.3c-0.4,0.1-0.6,0.1-0.8,0.2s-0.3,0.2-0.3,0.3s-0.1,0.3-0.1,0.4c0,0.2,0.1,0.4,0.3,0.6
		s0.4,0.2,0.8,0.2s0.6-0.1,0.9-0.2s0.5-0.3,0.6-0.6c0.1-0.2,0.1-0.5,0.1-0.9L81.5,78.1L81.5,78.1z M81.1,74.9h-0.7l-1.1-1.4h1.2
		L81.1,74.9z"/>
	
		<linearGradient id="SVGID_10_" gradientUnits="userSpaceOnUse" x1="86.55" y1="22.89" x2="87.4289" y2="22.89" gradientTransform="matrix(1 0 0 -1 0 100)">
		<stop  offset="0" style="stop-color:#00FF00;stop-opacity:0.7"/>
		<stop  offset="0" style="stop-color:#0000FF;stop-opacity:0.6"/>
	</linearGradient>
	<path class="st9" d="M86.6,80.7v-7.2h0.9v7.2H86.6z"/>
	
		<linearGradient id="SVGID_11_" gradientUnits="userSpaceOnUse" x1="88.4941" y1="21.905" x2="93.2695" y2="21.905" gradientTransform="matrix(1 0 0 -1 0 100)">
		<stop  offset="0" style="stop-color:#00FF00;stop-opacity:0.7"/>
		<stop  offset="0" style="stop-color:#0000FF;stop-opacity:0.6"/>
	</linearGradient>
	<path class="st10" d="M92.2,80.1c-0.3,0.3-0.6,0.5-0.9,0.6s-0.6,0.2-1,0.2c-0.6,0-1-0.1-1.3-0.4c-0.3-0.3-0.5-0.6-0.5-1.1
		c0-0.3,0.1-0.5,0.2-0.7c0.1-0.2,0.3-0.4,0.4-0.5s0.4-0.2,0.6-0.3c0.2-0.1,0.4-0.1,0.8-0.1c0.7-0.1,1.2-0.2,1.6-0.3
		c0-0.1,0-0.2,0-0.2c0-0.4-0.1-0.6-0.3-0.8c-0.2-0.2-0.6-0.3-1-0.3c-0.4,0-0.7,0.1-0.9,0.2c-0.2,0.1-0.3,0.4-0.4,0.8L88.6,77
		c0.1-0.4,0.2-0.7,0.4-0.9c0.2-0.2,0.4-0.4,0.8-0.5c0.3-0.1,0.7-0.2,1.2-0.2c0.4,0,0.8,0.1,1.1,0.2s0.5,0.2,0.6,0.4
		c0.1,0.2,0.2,0.4,0.3,0.6c0,0.2,0,0.4,0,0.8v1.2c0,0.8,0,1.3,0.1,1.6s0.1,0.4,0.2,0.6h-0.9C92.3,80.5,92.2,80.3,92.2,80.1z
		 M92.1,78.1c-0.3,0.1-0.8,0.2-1.4,0.3c-0.4,0.1-0.6,0.1-0.8,0.2s-0.3,0.2-0.3,0.3s-0.1,0.3-0.1,0.4c0,0.2,0.1,0.4,0.3,0.6
		s0.4,0.2,0.8,0.2s0.6-0.1,0.9-0.2s0.5-0.3,0.6-0.6c0.1-0.2,0.1-0.5,0.1-0.9L92.1,78.1L92.1,78.1z"/>
	
		<linearGradient id="SVGID_12_" gradientUnits="userSpaceOnUse" x1="100.425" y1="19.31" x2="100.425" y2="26.47" gradientTransform="matrix(1 0 0 -1 0 100)">
		<stop  offset="0" style="stop-color:#00FF00"/>
		<stop  offset="0.7" style="stop-color:#0000FF;stop-opacity:0.7"/>
	</linearGradient>
	<path class="st11" d="M97.3,80.7v-7.2h3.2c0.6,0,1.1,0.1,1.5,0.2c0.3,0.1,0.6,0.4,0.8,0.7s0.3,0.7,0.3,1.1c0,0.5-0.2,0.9-0.5,1.3
		s-0.8,0.6-1.5,0.7c0.3,0.1,0.4,0.2,0.6,0.4c0.3,0.3,0.5,0.6,0.8,0.9l1.3,1.9h-1.2l-0.9-1.5c-0.3-0.4-0.5-0.8-0.7-1
		s-0.3-0.4-0.5-0.5s-0.3-0.2-0.4-0.2c-0.1,0-0.3,0-0.5,0h-1.1v3.2L97.3,80.7L97.3,80.7z M98.2,76.7h2c0.4,0,0.8,0,1-0.1
		c0.2-0.1,0.4-0.2,0.6-0.4s0.2-0.4,0.2-0.6c0-0.3-0.1-0.6-0.4-0.8s-0.6-0.3-1.2-0.3h-2.3L98.2,76.7L98.2,76.7z"/>
	
		<linearGradient id="SVGID_13_" gradientUnits="userSpaceOnUse" x1="104.06" y1="21.895" x2="108.84" y2="21.895" gradientTransform="matrix(1 0 0 -1 0 100)">
		<stop  offset="0" style="stop-color:#00FF00;stop-opacity:0.7"/>
		<stop  offset="0" style="stop-color:#0000FF;stop-opacity:0.6"/>
	</linearGradient>
	<path class="st12" d="M107.9,79l0.9,0.1c-0.1,0.5-0.4,0.9-0.8,1.2s-0.9,0.4-1.5,0.4c-0.8,0-1.4-0.2-1.8-0.7c-0.4-0.5-0.7-1.1-0.7-2
		c0-0.9,0.2-1.6,0.7-2s1-0.7,1.8-0.7c0.7,0,1.3,0.2,1.7,0.7s0.7,1.1,0.7,2c0,0.1,0,0.1,0,0.2H105c0,0.6,0.2,1,0.5,1.3
		s0.7,0.4,1.1,0.4c0.3,0,0.6-0.1,0.8-0.3S107.8,79.4,107.9,79z M105,77.6h2.9c0-0.4-0.2-0.8-0.3-1c-0.3-0.3-0.6-0.5-1.1-0.5
		c-0.4,0-0.7,0.1-1,0.4S105.1,77.2,105,77.6z"/>
	
		<linearGradient id="SVGID_14_" gradientUnits="userSpaceOnUse" x1="109.915" y1="21.96" x2="114.125" y2="21.96" gradientTransform="matrix(1 0 0 -1 0 100)">
		<stop  offset="0" style="stop-color:#00FF00;stop-opacity:0.7"/>
		<stop  offset="0" style="stop-color:#0000FF;stop-opacity:0.6"/>
	</linearGradient>
	<path class="st13" d="M109.9,80.7v-5.2h0.8v0.7c0.4-0.6,0.9-0.8,1.7-0.8c0.3,0,0.6,0.1,0.9,0.2s0.5,0.3,0.6,0.4s0.2,0.4,0.3,0.7
		c0,0.2,0.1,0.4,0.1,0.8v3.2h-0.9v-3.2c0-0.4,0-0.6-0.1-0.8c-0.1-0.2-0.2-0.3-0.4-0.4s-0.4-0.2-0.6-0.2c-0.4,0-0.7,0.1-1,0.4
		s-0.4,0.7-0.4,1.3v2.8C110.8,80.7,109.9,80.7,109.9,80.7z"/>
	
		<linearGradient id="SVGID_15_" gradientUnits="userSpaceOnUse" x1="115.208" y1="21.905" x2="119.728" y2="21.905" gradientTransform="matrix(1 0 0 -1 0 100)">
		<stop  offset="0" style="stop-color:#00FF00;stop-opacity:0.7"/>
		<stop  offset="0" style="stop-color:#0000FF;stop-opacity:0.6"/>
	</linearGradient>
	<path class="st14" d="M118.9,78.8l0.9,0.1c-0.1,0.6-0.3,1.1-0.7,1.4c-0.4,0.3-0.9,0.5-1.4,0.5c-0.7,0-1.3-0.2-1.7-0.7
		c-0.4-0.5-0.7-1.1-0.7-2c0-0.6,0.1-1.1,0.3-1.5s0.5-0.7,0.8-0.9c0.4-0.2,0.8-0.3,1.2-0.3c0.6,0,1,0.1,1.4,0.4
		c0.4,0.3,0.6,0.7,0.7,1.2l-0.8,0.1c-0.1-0.3-0.2-0.6-0.4-0.8s-0.5-0.3-0.8-0.3c-0.4,0-0.8,0.2-1.1,0.5s-0.4,0.8-0.4,1.5
		c0,0.7,0.1,1.2,0.4,1.5s0.6,0.5,1,0.5c0.3,0,0.6-0.1,0.9-0.3S118.8,79.2,118.9,78.8z"/>
	
		<linearGradient id="SVGID_16_" gradientUnits="userSpaceOnUse" x1="120.15" y1="21.9" x2="125.01" y2="21.9" gradientTransform="matrix(1 0 0 -1 0 100)">
		<stop  offset="0" style="stop-color:#00FF00;stop-opacity:0.7"/>
		<stop  offset="0" style="stop-color:#0000FF;stop-opacity:0.6"/>
	</linearGradient>
	<path class="st15" d="M120.2,78.1c0-1,0.3-1.7,0.8-2.1c0.4-0.4,1-0.6,1.6-0.6c0.7,0,1.3,0.2,1.8,0.7c0.4,0.5,0.7,1.1,0.7,1.9
		c0,0.7-0.1,1.2-0.3,1.6c-0.2,0.4-0.5,0.7-0.9,0.9s-0.8,0.3-1.3,0.3c-0.7,0-1.3-0.2-1.8-0.7S120.2,79,120.2,78.1z M121.1,78.1
		c0,0.7,0.2,1.2,0.4,1.5c0.3,0.3,0.7,0.5,1.1,0.5c0.4,0,0.8-0.2,1.1-0.5s0.4-0.8,0.4-1.5c0-0.6-0.2-1.1-0.4-1.5s-0.7-0.5-1.1-0.5
		c-0.4,0-0.8,0.2-1.1,0.5S121.1,77.4,121.1,78.1z"/>
	
		<linearGradient id="SVGID_17_" gradientUnits="userSpaceOnUse" x1="126.04" y1="21.96" x2="130.2548" y2="21.96" gradientTransform="matrix(1 0 0 -1 0 100)">
		<stop  offset="0" style="stop-color:#00FF00;stop-opacity:0.7"/>
		<stop  offset="0" style="stop-color:#0000FF;stop-opacity:0.6"/>
	</linearGradient>
	<path class="st16" d="M126,80.7v-5.2h0.8v0.7c0.4-0.6,0.9-0.8,1.6-0.8c0.3,0,0.6,0.1,0.9,0.2s0.5,0.3,0.6,0.4
		c0.1,0.2,0.2,0.4,0.3,0.7c0,0.2,0.1,0.4,0.1,0.8v3.2h-0.9v-3.2c0-0.4,0-0.6-0.1-0.8c-0.1-0.2-0.2-0.3-0.4-0.4s-0.4-0.2-0.6-0.2
		c-0.4,0-0.7,0.1-1,0.4s-0.4,0.7-0.4,1.3v2.8C126.9,80.7,126,80.7,126,80.7z"/>
	
		<linearGradient id="SVGID_18_" gradientUnits="userSpaceOnUse" x1="131.1162" y1="22.76" x2="133.6455" y2="22.76" gradientTransform="matrix(1 0 0 -1 0 100)">
		<stop  offset="0" style="stop-color:#00FF00;stop-opacity:0.7"/>
		<stop  offset="0" style="stop-color:#0000FF;stop-opacity:0.6"/>
	</linearGradient>
	<path class="st17" d="M133.5,79.9l0.1,0.8c-0.3,0.1-0.5,0.1-0.7,0.1c-0.3,0-0.6-0.1-0.7-0.2s-0.3-0.2-0.4-0.4
		c-0.1-0.2-0.1-0.5-0.1-1v-3h-0.6v-0.7h0.6v-1.3l0.9-0.5v1.8h0.9v0.7h-0.9v3c0,0.3,0,0.4,0.1,0.5s0.1,0.1,0.1,0.2
		c0.1,0,0.2,0.1,0.3,0.1C133.2,79.9,133.4,79.9,133.5,79.9z"/>
	
		<linearGradient id="SVGID_19_" gradientUnits="userSpaceOnUse" x1="134.37" y1="21.965" x2="137.1873" y2="21.965" gradientTransform="matrix(1 0 0 -1 0 100)">
		<stop  offset="0" style="stop-color:#00FF00;stop-opacity:0.7"/>
		<stop  offset="0" style="stop-color:#0000FF;stop-opacity:0.6"/>
	</linearGradient>
	<path class="st18" d="M134.4,80.7v-5.2h0.8v0.8c0.2-0.4,0.4-0.6,0.6-0.7s0.4-0.2,0.6-0.2c0.3,0,0.6,0.1,0.9,0.3l-0.3,0.8
		c-0.2-0.1-0.4-0.2-0.6-0.2c-0.2,0-0.4,0.1-0.5,0.2c-0.1,0.1-0.3,0.3-0.3,0.5c-0.1,0.3-0.1,0.7-0.1,1v2.7L134.4,80.7L134.4,80.7z"/>
	
		<linearGradient id="SVGID_20_" gradientUnits="userSpaceOnUse" x1="137.415" y1="21.895" x2="142.195" y2="21.895" gradientTransform="matrix(1 0 0 -1 0 100)">
		<stop  offset="0" style="stop-color:#00FF00;stop-opacity:0.7"/>
		<stop  offset="0" style="stop-color:#0000FF;stop-opacity:0.6"/>
	</linearGradient>
	<path class="st19" d="M141.3,79l0.9,0.1c-0.1,0.5-0.4,0.9-0.8,1.2s-0.9,0.4-1.5,0.4c-0.8,0-1.4-0.2-1.8-0.7c-0.4-0.5-0.7-1.1-0.7-2
		c0-0.9,0.2-1.6,0.7-2s1-0.7,1.8-0.7c0.7,0,1.3,0.2,1.7,0.7s0.7,1.1,0.7,2c0,0.1,0,0.1,0,0.2h-3.9c0,0.6,0.2,1,0.5,1.3
		s0.6,0.4,1.1,0.4c0.3,0,0.6-0.1,0.8-0.3S141.1,79.4,141.3,79z M138.4,77.6h2.9c0-0.4-0.1-0.8-0.3-1c-0.3-0.3-0.6-0.5-1.1-0.5
		c-0.4,0-0.7,0.1-1,0.4C138.6,76.8,138.4,77.2,138.4,77.6z"/>
	
		<linearGradient id="SVGID_21_" gradientUnits="userSpaceOnUse" x1="145.7305" y1="22.83" x2="150.2305" y2="22.83" gradientTransform="matrix(1 0 0 -1 0 100)">
		<stop  offset="0" style="stop-color:#00FF00;stop-opacity:0.7"/>
		<stop  offset="0" style="stop-color:#0000FF;stop-opacity:0.6"/>
	</linearGradient>
	<path class="st20" d="M149.4,80.7V80c-0.3,0.5-0.8,0.8-1.4,0.8c-0.4,0-0.8-0.1-1.1-0.3c-0.4-0.2-0.6-0.6-0.8-1
		c-0.2-0.4-0.3-0.9-0.3-1.4c0-0.5,0.1-1,0.3-1.4c0.2-0.4,0.4-0.8,0.8-1s0.7-0.3,1.2-0.3c0.3,0,0.6,0.1,0.8,0.2s0.4,0.3,0.6,0.5v-2.6
		h0.9v7.2L149.4,80.7L149.4,80.7z M146.6,78.1c0,0.7,0.1,1.2,0.4,1.5s0.6,0.5,1,0.5s0.7-0.2,1-0.5c0.3-0.3,0.4-0.8,0.4-1.4
		c0-0.7-0.1-1.2-0.4-1.6s-0.6-0.5-1-0.5c-0.4,0-0.7,0.2-1,0.5C146.8,76.9,146.6,77.4,146.6,78.1z"/>
	
		<linearGradient id="SVGID_22_" gradientUnits="userSpaceOnUse" x1="151.32" y1="21.895" x2="156.1" y2="21.895" gradientTransform="matrix(1 0 0 -1 0 100)">
		<stop  offset="0" style="stop-color:#00FF00;stop-opacity:0.7"/>
		<stop  offset="0" style="stop-color:#0000FF;stop-opacity:0.6"/>
	</linearGradient>
	<path class="st21" d="M155.2,79l0.9,0.1c-0.1,0.5-0.4,0.9-0.8,1.2s-0.9,0.4-1.5,0.4c-0.8,0-1.4-0.2-1.8-0.7c-0.4-0.5-0.7-1.1-0.7-2
		c0-0.9,0.2-1.6,0.7-2s1-0.7,1.8-0.7c0.7,0,1.3,0.2,1.7,0.7s0.7,1.1,0.7,2c0,0.1,0,0.1,0,0.2h-3.9c0,0.6,0.2,1,0.5,1.3
		s0.6,0.4,1.1,0.4c0.3,0,0.6-0.1,0.8-0.3S155,79.4,155.2,79z M152.3,77.6h2.9c0-0.4-0.1-0.8-0.3-1c-0.3-0.3-0.6-0.5-1.1-0.5
		c-0.4,0-0.7,0.1-1,0.4C152.5,76.8,152.3,77.2,152.3,77.6z"/>
	
		<linearGradient id="SVGID_23_" gradientUnits="userSpaceOnUse" x1="162.59" y1="19.19" x2="162.59" y2="26.59" gradientTransform="matrix(1 0 0 -1 0 100)">
		<stop  offset="0" style="stop-color:#00FF00;stop-opacity:0.7"/>
		<stop  offset="0.7" style="stop-color:#0000FF;stop-opacity:0.7"/>
	</linearGradient>
	<path class="st22" d="M159.7,78.4l0.9-0.1c0,0.4,0.1,0.7,0.3,0.9c0.1,0.2,0.4,0.4,0.7,0.6c0.3,0.1,0.7,0.2,1.1,0.2
		c0.4,0,0.7-0.1,1-0.2s0.5-0.3,0.6-0.4s0.2-0.4,0.2-0.6s-0.1-0.4-0.2-0.6c-0.1-0.2-0.3-0.3-0.6-0.4c-0.2-0.1-0.6-0.2-1.3-0.3
		c-0.7-0.2-1.1-0.3-1.4-0.4c-0.3-0.2-0.6-0.4-0.8-0.7c-0.2-0.3-0.3-0.6-0.3-0.9c0-0.4,0.1-0.7,0.3-1c0.2-0.3,0.5-0.6,0.9-0.7
		s0.8-0.2,1.3-0.2c0.5,0,1,0.1,1.4,0.3c0.4,0.2,0.7,0.4,0.9,0.8s0.3,0.7,0.4,1.1l-0.9,0.1c-0.1-0.4-0.2-0.8-0.5-1
		c-0.3-0.2-0.7-0.3-1.3-0.3c-0.6,0-1,0.1-1.3,0.3c-0.3,0.2-0.4,0.5-0.4,0.8c0,0.3,0.1,0.5,0.3,0.6c0.2,0.2,0.7,0.3,1.4,0.5
		c0.8,0.2,1.3,0.3,1.6,0.5c0.4,0.2,0.7,0.4,0.9,0.7s0.3,0.6,0.3,1c0,0.4-0.1,0.7-0.3,1.1c-0.2,0.3-0.5,0.6-0.9,0.8s-0.9,0.3-1.4,0.3
		c-0.6,0-1.2-0.1-1.6-0.3s-0.8-0.5-1-0.8C159.9,79.3,159.8,78.9,159.7,78.4z"/>
	
		<linearGradient id="SVGID_24_" gradientUnits="userSpaceOnUse" x1="166.29" y1="21.9" x2="171.15" y2="21.9" gradientTransform="matrix(1 0 0 -1 0 100)">
		<stop  offset="0" style="stop-color:#00FF00;stop-opacity:0.7"/>
		<stop  offset="0" style="stop-color:#0000FF;stop-opacity:0.6"/>
	</linearGradient>
	<path class="st23" d="M166.3,78.1c0-1,0.3-1.7,0.8-2.1c0.4-0.4,1-0.6,1.6-0.6c0.7,0,1.3,0.2,1.8,0.7c0.4,0.5,0.7,1.1,0.7,1.9
		c0,0.7-0.1,1.2-0.3,1.6s-0.5,0.7-0.9,0.9c-0.4,0.2-0.8,0.3-1.3,0.3c-0.7,0-1.3-0.2-1.8-0.7C166.5,79.7,166.3,79,166.3,78.1z
		 M167.2,78.1c0,0.7,0.1,1.2,0.4,1.5c0.3,0.3,0.6,0.5,1.1,0.5s0.8-0.2,1.1-0.5s0.4-0.8,0.4-1.5c0-0.6-0.1-1.1-0.4-1.5
		c-0.3-0.3-0.6-0.5-1.1-0.5s-0.8,0.2-1.1,0.5S167.2,77.4,167.2,78.1z"/>
	
		<linearGradient id="SVGID_25_" gradientUnits="userSpaceOnUse" x1="172.1855" y1="22.89" x2="173.0645" y2="22.89" gradientTransform="matrix(1 0 0 -1 0 100)">
		<stop  offset="0" style="stop-color:#00FF00;stop-opacity:0.7"/>
		<stop  offset="0" style="stop-color:#0000FF;stop-opacity:0.6"/>
	</linearGradient>
	<path class="st24" d="M172.2,74.5v-1h0.9v1H172.2z M172.2,80.7v-5.2h0.9v5.2H172.2z"/>
</g>
</svg>
